<?xml version="1.0" encoding="iso-8859-1"?>
<!-- Generator: Adobe Illustrator 19.0.0, SVG Export Plug-In . SVG Version: 6.00 Build 0)  -->
<svg version="1.1" className="h-8" id="Layer_1" xmlns="http://www.w3.org/2000/svg" xmlns:xlink="http://www.w3.org/1999/xlink" x="0px" y="0px"
	 viewBox="0 0 511.999 511.999" style="enable-background:new 0 0 511.999 511.999;" xml:space="preserve">
<g>
	<g>
		<path d="M354.472,73.688H199.729c-8.857,0-16.064-7.206-16.064-16.064c0-17.396-14.151-31.547-31.546-31.547H1.548v158.314H152.12
			c8.857,0,16.063,7.206,16.063,16.064c0,17.396,14.151,31.547,31.547,31.547h154.742l-35.18-79.157L354.472,73.688z
			 M168.182,173.313c-4.708-2.796-10.202-4.404-16.063-4.404H17.031V41.561H152.12c8.857,0,16.063,7.206,16.063,16.064V173.313z
			 M330.647,216.52H199.729c-8.857,0-16.064-7.206-16.064-16.064V84.768c4.708,2.796,10.202,4.404,16.064,4.404h130.917
			l-28.3,63.674L330.647,216.52z"/>
	</g>
</g>
<g>
	<g>
		<rect y="2.085" width="15.483" height="15.483"/>
	</g>
</g>
<g>
	<g>
		<rect y="191.998" width="15.483" height="317.916"/>
	</g>
</g>
<g>
	<g>
		<rect x="278.692" y="255.994" width="15.483" height="15.483"/>
	</g>
</g>
<g>
	<g>
		<rect x="278.692" y="391.212" width="15.483" height="118.702"/>
	</g>
</g>
<g>
	<g>
		<path d="M493.491,374.848l18.031-63.11h-73.743c-4.482,0-8.129-3.647-8.129-8.129c0-13.019-10.592-23.611-23.611-23.611H279.272
			v102.768h126.767c4.482,0,8.129,3.646,8.129,8.128v14.23c0,13.923,11.327,25.252,25.251,25.252h72.581L493.491,374.848z
			 M414.168,368.724c-2.536-0.932-5.273-1.441-8.129-1.441H294.755v-71.802h111.284c4.482,0,8.129,3.646,8.129,8.129V368.724z
			 M490.518,414.893h-51.1c-5.386,0-9.768-4.382-9.768-9.769v-14.23v-65.116c2.535,0.932,5.273,1.442,8.129,1.442h53.217
			L477.287,375.2L490.518,414.893z"/>
	</g>
</g>
<g>
	<g>
		<path d="M88.833,383.153v63.093h94.833v-63.093H88.833z M168.182,430.763h-63.867v-32.127h63.867V430.763z"/>
	</g>
</g>
<g>
	<g>
		<polygon points="245.935,414.893 191.794,414.893 191.794,430.376 217.004,430.376 206.295,446.439 217.004,462.503 
			159.861,462.503 159.861,454.375 144.378,454.375 144.378,477.986 245.935,477.986 224.904,446.439 		"/>
	</g>
</g>
<g>
	<g>
		<rect x="87.736" y="454.175" width="15.483" height="55.738"/>
	</g>
</g>
<g>
	<g>
		<rect x="87.736" y="359.214" width="15.483" height="15.483"/>
	</g>
</g>
<g>
</g>
<g>
</g>
<g>
</g>
<g>
</g>
<g>
</g>
<g>
</g>
<g>
</g>
<g>
</g>
<g>
</g>
<g>
</g>
<g>
</g>
<g>
</g>
<g>
</g>
<g>
</g>
<g>
</g>
</svg>
